<svg id="Layer_2" xmlns="http://www.w3.org/2000/svg" viewBox="0 0 386.18 181.1"><defs><style>
      .cls-1 {
        fill: #b8ffbb;
      }
      .cls-1, .cls-2, .cls-3, .cls-4, .cls-5, .cls-6, .cls-7, .cls-8, .cls-9, .cls-10, .cls-11, .cls-12, .cls-13, .cls-14 {
        stroke-width: 0px;
      }
      .cls-2 {
        fill: #00adee;
        opacity: .3;
      }
      .cls-3 {
        fill: #ffcc67;
      }
      .cls-15 {
        stroke: #00deae;
        stroke-width: 1px;
      }
      .cls-15, .cls-6 {
        fill: #0fb;
      }
      .cls-4 {
        fill: #cc6734;
      }
      .cls-5 {
        fill: none;
      }
      .cls-7 {
        fill: #f69468;
      }
      .cls-8 {
        fill: #f7981d;
      }
      .cls-9 {
        fill: #0ecadd;
      }
      .cls-10 {
        fill: #ec2224;
      }
      .cls-16 {
        fill: #000;
        font-family: Lato-Light, Lato;
        font-size: 82.08px;
        font-weight: 300;
      }
      .cls-11 {
        fill: #00deae;
      }
      .cls-12 {
        fill: #0b9948;
      }
      .cls-13 {
        fill: #973720;
      }
      .cls-14 {
        fill: #fff;
      }
    </style></defs><g id="Layer_1-2"><g><text class="cls-16" transform="translate(174.39 71.88)"><tspan x="0" y="0">ingest</tspan></text><g><path class="cls-10" d="M178.71,10.16c-3.16,3.16-3.16,8.27.01,11.43,3.15,3.15,8.28,3.15,11.44-.01,3.14-3.16,3.14-8.27-.02-11.43-3.17-3.16-8.29-3.15-11.43.02Z"></path><polygon class="cls-13" points="184.63 13.16 178.13 0 175.24 2.46 177.7 3.57 183.28 13.16 184.63 13.16"></polygon></g><g><path class="cls-12" d="M292.83,32.36c-.1-.04-.18-.06-.27-.09-.03.07-.06.15-.1.25.15-.07.28-.12.37-.16Z"></path><path class="cls-10" d="M297.78,57.86c-1.58-1.99-3.1-3.91-4.45-5.6-.06.48-.28.85-.63,1.01-.71.33-1.66-.33-2.17-1.45-.49-1.11-.32-2.26.39-2.58-6.71-8.33,1.67-13.23,1.67-13.23l-.85-1.91c-1.24,2.43-3.8,6.4-7.94,8.24-1.1.49-2.23.79-3.36.97-1.52,3.41-1.84,7.64.44,12.76,7.32,16.41,21.75,25.93,32.23,21.26,0,0-7.8-9.96-14.73-18.72-.22-.2-.42-.45-.59-.75ZM291.68,62.81c-.7.3-1.67-.34-2.17-1.45-.49-1.11-.33-2.25.37-2.57.71-.3,1.67.34,2.17,1.44.5,1.11.32,2.27-.37,2.59ZM298.77,68.09c-.71.31-1.67-.33-2.16-1.45-.51-1.11-.33-2.26.37-2.57.7-.32,1.66.34,2.17,1.43.48,1.12.33,2.27-.38,2.58ZM305.08,69.52c.7-.32,1.67.33,2.16,1.45.49,1.11.32,2.27-.37,2.56-.7.31-1.67-.32-2.17-1.43-.5-1.12-.33-2.26.38-2.58Z"></path><path class="cls-10" d="M294.88,33.73l.65-.64c-.38-.08-.72-.16-1.04-.24l.4.89Z"></path><path class="cls-10" d="M292.83,32.36c-.09.04-.22.09-.37.16-.15.36-.39.91-.73,1.58l.85,1.91h0l2.29-2.27-.4-.89c-.68-.17-1.24-.35-1.64-.48Z"></path><path class="cls-12" d="M290.52,31.37c-2.64-.7-7.3-1.46-11.45.38-6.19,2.77-8.86,10.29-8.86,10.29,0,0,5,2.06,10.22,1.25,2.45-5.48,8-8.82,10.84-10.23l-.76-1.7Z"></path><path class="cls-12" d="M292.47,32.51c.04-.1.07-.18.1-.25-.27-.1-.44-.16-.44-.16,0,0,.03-.09.08-.21-.36-.13-.94-.32-1.69-.52l.76,1.7c.49-.24.89-.42,1.19-.55Z"></path><path class="cls-12" d="M291.73,34.09l-.46-1.02c-2.84,1.41-8.4,4.75-10.84,10.23,1.12-.17,2.26-.47,3.36-.97,4.14-1.84,6.69-5.81,7.94-8.24Z"></path><path class="cls-12" d="M291.28,33.07l.46,1.02c.34-.67.59-1.22.73-1.58-.3.13-.7.31-1.19.55Z"></path><path class="cls-7" d="M289.88,58.78c-.7.32-.86,1.46-.37,2.57.5,1.11,1.46,1.76,2.17,1.45.7-.32.88-1.48.37-2.59-.5-1.1-1.46-1.74-2.17-1.44Z"></path><path class="cls-7" d="M297.78,57.86c.17.3.37.55.59.75-.2-.25-.4-.5-.59-.75Z"></path><path class="cls-7" d="M296.98,64.07c-.7.31-.88,1.46-.37,2.57.5,1.11,1.46,1.76,2.16,1.45.71-.31.86-1.47.38-2.58-.51-1.1-1.47-1.75-2.17-1.43Z"></path><path class="cls-7" d="M306.87,73.53c.69-.29.87-1.45.37-2.56-.5-1.12-1.47-1.77-2.16-1.45-.71.32-.88,1.46-.38,2.58.5,1.11,1.47,1.74,2.17,1.43Z"></path><path class="cls-7" d="M290.52,51.82c.51,1.12,1.47,1.78,2.17,1.45.35-.16.57-.53.63-1.01-.88-1.11-1.7-2.13-2.42-3.02-.71.32-.88,1.48-.39,2.58Z"></path><g><path class="cls-6" d="M313.35,76.52c-.3-.03-.43-.2-.74-.67-.17-.26-.36-.54-.63-.81-.74-.72-1.64-1.3-2.51-1.85-.48-.31-.96-.62-1.41-.95-2.5-1.85-4.9-3.87-7.15-6.02-2.71-2.58-5.23-5.38-7.51-8.32-2.35-3.04-5.1-7.12-5.44-11.66-.16-2.15.34-4.35,1.42-6.18.72-1.22,1.73-2.01,2.8-2.84.59-.46,1.2-.93,1.79-1.5.3-.29.54-.54.76-.75.82-.84.95-.96,1.72-.96.3,0,.69.03,1.32.09.7.07,1.39.11,2.06.11,2.27,0,4.33-.41,6.14-1.21,1.15-.51,2.26-1.23,3.33-2.13,3.96,1.23,6.96,4.1,8.94,8.53,4.7,10.53,5.48,21.13,2.14,29.08-1.14,2.72-4.44,8.06-6.87,8.06,0,0-.1,0-.16,0Z"></path><path class="cls-11" d="M309.45,31.61c3.6,1.23,6.36,3.93,8.19,8.05,2.19,4.9,6.77,17.51,2.13,28.55-1.28,3.05-4.43,7.65-6.26,7.65,0,0,0,0-.01,0-.02,0-.05,0-.04.01-.06-.05-.2-.26-.29-.39-.18-.27-.4-.61-.72-.92-.79-.76-1.72-1.36-2.62-1.94-.49-.31-.95-.61-1.37-.92-2.47-1.83-4.86-3.84-7.09-5.96-2.68-2.56-5.18-5.33-7.44-8.25-2.3-2.97-4.98-6.94-5.3-11.31-.15-2.02.32-4.08,1.33-5.79.65-1.11,1.57-1.82,2.64-2.65.6-.47,1.23-.95,1.84-1.54.3-.29.55-.55.77-.77.75-.76.75-.77,1.24-.77h0c.27,0,.65.03,1.25.09.72.07,1.44.11,2.13.11,2.36,0,4.52-.43,6.41-1.27,1.1-.49,2.18-1.16,3.2-1.99M309.14,30.13c-1,.89-2.14,1.68-3.44,2.26-1.85.82-3.86,1.15-5.87,1.15-.67,0-1.34-.04-2-.1-.58-.06-1.03-.09-1.39-.09-1.31,0-1.44.46-2.93,1.9-1.62,1.57-3.5,2.45-4.7,4.48-1.15,1.95-1.68,4.3-1.51,6.56.34,4.47,2.84,8.47,5.58,12.02,2.31,2.98,4.84,5.79,7.57,8.4,2.28,2.17,4.69,4.2,7.21,6.07,1.23.91,2.75,1.68,3.85,2.74.64.62.8,1.56,1.77,1.66.07,0,.15.01.22.01,3.09,0,6.57-6.28,7.48-8.46,3.93-9.35,1.85-20.65-2.15-29.6-2.39-5.36-5.97-7.93-9.7-8.99h0Z"></path></g><path class="cls-9" d="M291.8,42.96c1.29,2.42,3.78,3.94,6.24,5.16,2.46,1.23,5.06,2.33,6.97,4.3,3.88,4.02,3.97,10.69,7.97,14.58.96.94,2.49,1.68,3.6.91,1.22-.85.86-2.71.38-4.11-3.15-9.06-6.3-18.13-9.46-27.19-.38-1.08-.77-2.19-1.5-3.06-1.52-1.8-4.23-2.2-6.5-1.59-4.52,1.21-10.49,5.75-7.68,11.01Z"></path><path class="cls-1" d="M294.21,37.41c1.23.13,2.3.93,3.07,1.89s1.31,2.09,1.91,3.16c1.4,2.51,3.19,4.79,5.12,6.9.86.94,1.86,1.75,2.72,2.66.8.85,1.12,2.09,1.82,3.04.24.32.59.66.97.55.27-.08.43-.36.45-.64s-.07-.55-.17-.82c-1.29-3.7-2.75-7.32-4.59-10.8-1.02-1.94-2.2-3.92-2.31-6.11-.04-.89.25-1.63.87-2.26.76-.77,1.43-.56,2.4-.86-.42-1.42-2.7-2.55-4.07-2.77-1.45-.23-3.46.6-4.86,1.02-2.68.8-5.16,2.32-7.01,4.42-.65.74-1.5,2.17-.65,3.04,1.77-.52,2.16-2.67,4.32-2.44Z"></path><path class="cls-12" d="M308,20.69c-2.2-.13-4.69.08-7.01,1.12-4.03,1.81-6.56,5.61-7.84,8.05l-2.46-5.51-2.75,1.23,2.58,5.78c.75.2,1.33.39,1.69.52-.05.12-.08.21-.08.21,0,0,.16.07.44.16.08.03.16.06.27.09.4.14.97.31,1.64.48.32.08.67.17,1.04.24,2.71.57,6.64.89,10.18-.69,1.3-.58,2.44-1.38,3.44-2.26,3.75-3.33,5.43-8.02,5.43-8.02,0,0-2.89-1.2-6.57-1.42Z"></path></g><path class="cls-5" d="M328.49,127.51c-5.08,2.86-10.08,5.51-15,7.97h17.68l-2.68-7.97Z"></path><path class="cls-9" d="M245.61,164.72c1.63,0,3.22-.09,4.77-.26,1.55-.17,3.07-.41,4.57-.71l9.24,10.36c1.29,1.5,2.77,2.49,4.44,2.99,1.67.49,3.52.74,5.56.74h14.19l-18.84-20.57c2.31-1.7,4.38-3.66,6.2-5.87.03-.04.07-.09.1-.13-16.53,5.65-31.52,9.1-44.49,11.14,4.35,1.54,9.09,2.32,14.25,2.32Z"></path><path class="cls-9" d="M331.17,135.47h-17.68c-7.94,3.96-15.66,7.41-23.12,10.4l-6.98,18.03h13.48c1.43,0,2.64-.38,3.62-1.15.99-.77,1.65-1.62,1.99-2.58l4.39-12.97h28.28l4.39,12.97c.37,1.09,1.05,1.98,2.02,2.68.97.7,2.2,1.05,3.7,1.05h13.37l-17.09-44.14c-4.4,2.74-8.75,5.32-13.05,7.74l2.68,7.97Z"></path><path class="cls-9" d="M366.18,163.9h17.36v-74.38h0c-5.84,4.8-11.63,9.29-17.35,13.51v60.87Z"></path><g><rect class="cls-6" x="179.66" y="89.53" width="17.36" height="74.38"></rect><path class="cls-6" d="M283.21,135.9c.66-2.94,1-6.01,1-9.21,0-5.34-.93-10.33-2.78-14.96-1.86-4.63-4.47-8.64-7.84-12.05-3.37-3.4-7.43-6.08-12.17-8.04-4.75-1.96-10.01-2.94-15.8-2.94s-11.06.97-15.82,2.91c-4.76,1.94-8.84,4.61-12.23,8.01-3.39,3.4-6.01,7.42-7.86,12.05-1.86,4.63-2.78,9.63-2.78,15.01s.93,10.38,2.78,15.01c1.85,4.63,4.47,8.65,7.86,12.07,3.39,3.42,7.46,6.1,12.23,8.04.52.21,1.04.41,1.57.59,12.97-2.04,27.96-5.48,44.49-11.14,1.77-2.18,3.28-4.53,4.49-7.07,1.24-2.59,2.2-5.35,2.86-8.3ZM265.11,136.67c-.95,2.94-2.32,5.44-4.11,7.48-1.79,2.04-3.97,3.6-6.56,4.67-2.59,1.07-5.53,1.61-8.83,1.61s-6.3-.54-8.91-1.61-4.8-2.63-6.58-4.67c-1.79-2.04-3.16-4.53-4.11-7.48-.95-2.94-1.43-6.27-1.43-9.98s.48-6.98,1.43-9.93c.95-2.94,2.32-5.44,4.11-7.48,1.79-2.04,3.98-3.61,6.58-4.7,2.6-1.09,5.57-1.63,8.91-1.63s6.25.54,8.83,1.63c2.59,1.09,4.77,2.65,6.56,4.7,1.79,2.04,3.16,4.54,4.11,7.48.95,2.94,1.43,6.25,1.43,9.93s-.48,7.04-1.43,9.98Z"></path><path class="cls-6" d="M312.18,89.53l-21.81,56.35c7.46-3,15.18-6.44,23.12-10.4h-2.64l6.84-20.27c.51-1.29,1.05-2.82,1.63-4.59.58-1.77,1.14-3.69,1.68-5.77.58,2.04,1.17,3.94,1.76,5.69.59,1.75,1.11,3.28,1.56,4.57l4.17,12.4c4.3-2.42,8.65-5.01,13.05-7.74l-11.7-30.23h-17.66Z"></path><path class="cls-6" d="M366.18,103.03c5.73-4.22,11.52-8.7,17.35-13.51h-17.35v13.51Z"></path></g><g><g><path class="cls-4" d="M109.6,122.85c31.97-3.85,54.75-32.87,50.91-64.83-3.84-31.95-32.86-54.74-64.82-50.89-31.96,3.84-54.75,32.86-50.9,64.82,3.85,31.96,32.86,54.75,64.81,50.9Z"></path><path class="cls-4" d="M109.03,118.08c29.32-3.52,50.23-30.16,46.71-59.48-3.53-29.32-30.16-50.22-59.47-46.7-29.32,3.53-50.23,30.15-46.7,59.47,3.52,29.32,30.15,50.23,59.46,46.71Z"></path><g><path class="cls-7" d="M62.87,33.51l1.51,12.55,12.55-1.51-1.51-12.55-12.55,1.51ZM58.21,35.28c-2.53,3.8-4.59,7.9-6.1,12.25l7.46-.9-1.36-11.35ZM81.91,49.06l1.51,12.55,12.55-1.51-1.51-12.55-12.55,1.51ZM64.98,51.09l1.51,12.55,12.55-1.51-1.51-12.55-12.55,1.51ZM79.8,31.47l1.52,12.55,12.54-1.51-1.51-12.55-12.54,1.51ZM49.19,65.72l12.49-1.5-1.51-12.54-9.61,1.16c-.97,4.16-1.45,8.47-1.37,12.89ZM73.96,19.86c-3.89,2.49-7.42,5.46-10.52,8.8l11.41-1.38-.9-7.42ZM78.12,17.48l1.11,9.26,12.55-1.5-1.48-12.27c-4.3,1.01-8.38,2.54-12.18,4.5Z"></path><path class="cls-7" d="M134.13,25.22l-12.54,1.5,1.51,12.55,12.55-1.51-1.52-12.54ZM132.35,20.55c-3.79-2.53-7.89-4.6-12.24-6.1l.9,7.47,11.34-1.37ZM118.58,44.25l-12.54,1.51,1.51,12.55,12.54-1.51-1.51-12.56ZM116.55,27.33l-12.55,1.5,1.51,12.55,12.54-1.51-1.5-12.54ZM136.17,42.14l-12.54,1.52,1.51,12.54,12.55-1.51-1.52-12.55ZM101.92,11.53l1.5,12.49,12.55-1.51-1.15-9.6c-4.16-.97-8.48-1.44-12.9-1.38ZM147.78,36.3c-2.49-3.89-5.45-7.41-8.8-10.51l1.38,11.41,7.42-.9ZM150.16,40.46l-9.26,1.11,1.5,12.55,12.27-1.47c-1.01-4.31-2.54-8.4-4.51-12.19Z"></path><path class="cls-7" d="M142.42,96.47l-1.5-12.55-12.54,1.51,1.5,12.55,12.54-1.51ZM147.1,94.68c2.52-3.78,4.59-7.89,6.09-12.23l-7.45.9,1.36,11.33ZM123.38,80.92l-1.5-12.55-12.55,1.52,1.51,12.54,12.54-1.51ZM140.31,78.89l-1.5-12.55-12.55,1.51,1.51,12.55,12.54-1.5ZM125.5,98.51l-1.51-12.55-12.55,1.52,1.51,12.55,12.55-1.52ZM156.11,64.26l-12.49,1.5,1.51,12.55,9.61-1.16c.97-4.15,1.45-8.48,1.38-12.89ZM131.35,110.12c3.88-2.49,7.41-5.45,10.5-8.79l-11.4,1.37.9,7.43ZM127.18,112.51l-1.11-9.29-12.55,1.52,1.47,12.26c4.3-1.02,8.39-2.55,12.19-4.5Z"></path><path class="cls-7" d="M71.17,104.76l12.54-1.5-1.5-12.55-12.54,1.5,1.51,12.55ZM72.96,109.43c3.77,2.53,7.89,4.59,12.24,6.1l-.9-7.46-11.34,1.36ZM86.71,85.72l12.55-1.5-1.51-12.55-12.55,1.51,1.51,12.54ZM88.75,102.65l12.55-1.51-1.51-12.54-12.56,1.51,1.52,12.54ZM69.12,87.84l12.56-1.52-1.52-12.54-12.54,1.51,1.5,12.54ZM103.38,118.45l-1.51-12.49-12.55,1.51,1.16,9.61c4.15.98,8.48,1.45,12.9,1.38ZM57.52,93.68c2.48,3.88,5.45,7.41,8.79,10.51l-1.37-11.4-7.42.89ZM55.13,89.53l9.28-1.11-1.51-12.55-12.27,1.48c1.01,4.31,2.54,8.4,4.5,12.19Z"></path><path class="cls-7" d="M96.27,11.91c.17-.03.36-.03.53-.06l12.76,106.15c-.17.01-.34.05-.52.08-.52.05-1.03.09-1.55.14l-12.76-106.1c.52-.07,1.02-.15,1.54-.22Z"></path><path class="cls-7" d="M155.74,58.6c.02.18.03.36.04.53l-106.14,12.77c-.02-.19-.05-.35-.07-.53-.07-.52-.11-1.03-.15-1.55l106.09-12.77c.08.52.16,1.03.23,1.54Z"></path></g><path class="cls-14" d="M82.82,42.18c3.55-1.98,12.62-1.46,20.16,1.16,7.54,2.6,17.61,4.98,22.35,5.27,4.75.29,8.03,5.5,7.29,11.56-.74,6.08-6.43,12.22-12.64,13.67-6.21,1.45-13.03,6.03-15.18,10.19-2.13,4.15-9.04,6.22-15.34,4.61-6.31-1.62-10.7-7.56-9.75-13.2.94-5.65.59-14.64-.81-19.98-1.39-5.35.37-11.32,3.91-13.29Z"></path><g><path class="cls-10" d="M95.04,55.16c-3.05,2.27-3.69,6.58-1.42,9.65,2.27,3.05,6.58,3.69,9.64,1.43,3.05-2.28,3.69-6.59,1.43-9.64-2.26-3.06-6.59-3.7-9.64-1.44Z"></path><polygon class="cls-13" points="99.64 58.44 95.83 46.53 93.08 48.24 95.01 49.48 98.5 58.27 99.64 58.44"></polygon></g></g><g><path class="cls-8" d="M5.25,127c12.6,26.01,43.92,36.87,69.92,24.27,26.02-12.6,36.88-43.92,24.28-69.93-12.61-26-43.91-36.86-69.92-24.26C3.52,69.69-7.35,100.99,5.25,127Z"></path><g><path class="cls-15" d="M32.55,62.73c7.55-3.62,15.59-4.96,23.38-4.35l-3.31,45.74-20.06-41.39Z"></path><path class="cls-15" d="M72.15,145.63c-7.56,3.61-15.6,4.96-23.38,4.34l3.31-45.73,20.07,41.39Z"></path><path class="cls-15" d="M48.77,149.97c-8.33-.65-15.97-3.5-22.42-7.92l25.75-37.96-3.33,45.88Z"></path><path class="cls-15" d="M26.35,142.06c-6.9-4.74-12.09-11.03-15.45-18.08l41.27-20-25.82,38.09Z"></path><path class="cls-15" d="M10.9,123.98c-3.6-7.55-4.95-15.59-4.34-23.38l45.74,3.32-41.4,20.06Z"></path><path class="cls-15" d="M6.55,100.6c.66-8.34,3.51-15.98,7.93-22.41l37.96,25.74-45.9-3.33Z"></path><path class="cls-15" d="M14.48,78.18c4.74-6.9,11.03-12.09,18.08-15.45l20.01,41.27-38.09-25.82Z"></path><path class="cls-15" d="M55.94,58.38c8.33.66,15.98,3.5,22.41,7.93l-25.75,37.96,3.33-45.89Z"></path><path class="cls-15" d="M78.36,66.32c6.9,4.72,12.08,11.02,15.45,18.07l-41.27,19.99,25.83-38.06Z"></path><path class="cls-15" d="M93.81,84.38c3.61,7.55,4.95,15.6,4.34,23.39l-45.74-3.32,41.41-20.07Z"></path><path class="cls-15" d="M98.15,107.76c-.66,8.34-3.5,15.98-7.94,22.43l-37.95-25.75,45.89,3.32Z"></path><path class="cls-15" d="M90.24,130.18c-4.75,6.9-11.03,12.09-18.09,15.44l-20.01-41.26,38.09,25.82Z"></path></g><path class="cls-2" d="M16.09,121.75c9.7,20.02,33.81,28.4,53.84,18.69,20.02-9.7,28.38-33.81,18.69-53.84-9.71-20.02-33.81-28.39-53.84-18.69-20.02,9.71-28.4,33.81-18.69,53.84Z"></path><path class="cls-1" d="M32.69,80.26c2.42,2.31,4.65,4.83,6.64,7.52-1.59-4.67-3.18-9.35-4.78-14.02-2.4-7.04-11.29-5.34-12.06,1.65-.16,1.45-.24,4.14,1.6,4.57,1.36.32,2.7-1.56,4.04-1.73,1.88-.24,3.25.77,4.56,2.01Z"></path><path class="cls-1" d="M51.3,69.08c.12.84.1,1.79-.15,2.6s-.71,1.45-1.46,1.8c-1.36.62-3-.2-3.94-1.36-4.23-5.21,4.07-13.1,5.55-3.04Z"></path><path class="cls-1" d="M68.93,65.68c2.08.66,3.68,2.69,3.72,4.87s-1.56,4.32-3.7,4.77c-6.58,1.4-8.21-12.25-.02-9.64Z"></path></g><g><path class="cls-8" d="M61.93,148.35c12.59,25.96,43.85,36.81,69.81,24.23,25.96-12.58,36.81-43.83,24.23-69.8-12.58-25.96-43.83-36.8-69.81-24.22-25.96,12.58-36.81,43.82-24.23,69.79Z"></path><path class="cls-3" d="M118.09,85.53c7.69,2.43,12.87,7.75,11.56,11.88-1.31,4.12-8.61,5.49-16.29,3.05-7.7-2.43-12.88-7.76-11.57-11.88,1.31-4.12,8.6-5.49,16.3-3.05Z"></path></g><g><rect class="cls-12" x="58.83" y="139.96" width="17.49" height="2.91" transform="translate(-84.76 104.55) rotate(-50.86)"></rect><path class="cls-10" d="M42.59,140.9c-10.98,13.48-12.9,30.08-4.29,37.1,8.6,7,24.46,1.78,35.44-11.7,10.99-13.47-5.33-25.27-5.33-25.27,0,0-14.82-13.59-25.81-.13Z"></path><path class="cls-12" d="M68.16,140.17s.59,7.71,5.66,11.86c5.08,4.15,12.76,3.16,12.76,3.16,0,0-.59-7.7-5.68-11.85-5.09-4.14-12.74-3.17-12.74-3.17Z"></path><path class="cls-12" d="M50.02,125.61s.59,7.69,5.67,11.85c5.09,4.14,12.74,3.15,12.74,3.15,0,0-.58-7.7-5.66-11.85-5.09-4.15-12.75-3.15-12.75-3.15Z"></path><g><path class="cls-7" d="M62.82,167.31c-.78.91-.9,2.03-.33,2.51.58.47,1.65.12,2.38-.8.76-.91.87-2.04.32-2.5-.58-.47-1.66-.12-2.38.79Z"></path><path class="cls-7" d="M55.63,162c-.75.91-.89,2.04-.32,2.49.59.48,1.64.12,2.4-.79.73-.91.87-2.02.3-2.51-.58-.46-1.65-.1-2.39.81Z"></path><path class="cls-7" d="M41.79,150.68c-.76.91-.89,2.02-.31,2.5.57.46,1.64.1,2.38-.8.75-.92.89-2.03.31-2.51-.59-.47-1.65-.1-2.38.81Z"></path><path class="cls-7" d="M48.59,156.01c-.76.91-.89,2.04-.31,2.5.57.47,1.65.11,2.4-.8.74-.91.87-2.03.29-2.51-.57-.47-1.63-.11-2.38.81Z"></path><path class="cls-7" d="M54.52,170.39c-.74.91-.89,2.04-.31,2.51.57.47,1.65.1,2.4-.81.74-.91.87-2.04.3-2.49-.58-.47-1.64-.11-2.39.8Z"></path><path class="cls-7" d="M47.35,165.08c-.76.9-.88,2.02-.32,2.49.58.47,1.66.12,2.39-.79.75-.92.87-2.04.32-2.51-.59-.47-1.66-.11-2.39.81Z"></path><path class="cls-7" d="M40.3,159.1c-.74.91-.88,2.03-.3,2.49.57.47,1.65.11,2.39-.79.74-.93.88-2.04.31-2.51-.59-.46-1.66-.12-2.4.81Z"></path><path class="cls-7" d="M46.31,173.77c-.75.9-.89,2.03-.3,2.5.57.47,1.64.12,2.39-.8.73-.9.87-2.03.28-2.51-.56-.46-1.63-.1-2.38.81Z"></path><path class="cls-7" d="M39.13,168.46c-.75.91-.88,2.04-.3,2.51.57.45,1.65.1,2.4-.81.74-.9.87-2.03.3-2.5-.58-.45-1.66-.12-2.39.81Z"></path><path class="cls-7" d="M64.66,158.69c-.74.91-.88,2.03-.29,2.5.56.46,1.62.11,2.39-.8.74-.92.87-2.03.3-2.49-.58-.48-1.64-.12-2.39.79Z"></path><path class="cls-7" d="M57.49,153.38c-.75.9-.87,2.03-.3,2.5.56.46,1.64.11,2.37-.8.76-.91.88-2.04.31-2.5-.57-.46-1.64-.11-2.38.8Z"></path><path class="cls-7" d="M50.44,147.38c-.73.91-.88,2.04-.28,2.5.57.47,1.63.12,2.39-.79.74-.91.88-2.04.29-2.5-.58-.48-1.64-.12-2.4.78Z"></path></g></g></g></g></g></svg>